<?xml version="1.0" encoding="utf-8"?>
<!-- Generator: Adobe Illustrator 17.0.0, SVG Export Plug-In . SVG Version: 6.00 Build 0)  -->
<!DOCTYPE svg PUBLIC "-//W3C//DTD SVG 1.1//EN" "http://www.w3.org/Graphics/SVG/1.1/DTD/svg11.dtd">
<svg version="1.1" id="Layer_1" xmlns="http://www.w3.org/2000/svg" xmlns:xlink="http://www.w3.org/1999/xlink" x="0px" y="0px"
	 width="1280px" height="525px" viewBox="0 0 1280 525" style="enable-background:new 0 0 1280 525;" xml:space="preserve">
<style type="text/css">
	.st0{clip-path:url(#SVGID_2_);}
	.st1{clip-path:url(#SVGID_4_);}
	.st2{fill:none;stroke:#FCC900;stroke-width:4;stroke-miterlimit:10;}
	.st3{fill:#FFFFFF;}
	.st4{clip-path:url(#SVGID_6_);}
	.st5{clip-path:url(#SVGID_8_);}
	.st6{clip-path:url(#SVGID_10_);}
	.st7{clip-path:url(#SVGID_12_);}
	.st8{clip-path:url(#SVGID_14_);}
	.st9{clip-path:url(#SVGID_16_);}
	.st10{clip-path:url(#SVGID_18_);}
	.st11{clip-path:url(#SVGID_20_);}
	.st12{clip-path:url(#SVGID_22_);}
	.st13{clip-path:url(#SVGID_24_);}
	.st14{clip-path:url(#SVGID_26_);}
	.st15{clip-path:url(#SVGID_28_);}
	.st16{clip-path:url(#SVGID_30_);}
	.st17{clip-path:url(#SVGID_32_);}
</style>
<g id="country_1_">
	<g id="countrygiallo_1_">
		<g>
			<defs>
				<circle id="SVGID_1_" cx="532.8" cy="173.3" r="84"/>
			</defs>
			<clipPath id="SVGID_2_">
				<use xlink:href="#SVGID_1_"  style="overflow:visible;"/>
			</clipPath>
			<g transform="matrix(1 0 0 1 0 -7.629395e-06)" class="st0">
				
					<image style="overflow:visible;enable-background:new    ;" width="1552" height="1034" xlink:href="3254A028669589DE.jpg"  transform="matrix(0.1654 0 0 0.1654 396.7661 88.3141)">
				</image>
			</g>
		</g>
	</g>
	<g id="countrynero_1_">
		<g>
			<defs>
				<circle id="SVGID_3_" cx="532.8" cy="173.3" r="84"/>
			</defs>
			<clipPath id="SVGID_4_">
				<use xlink:href="#SVGID_3_"  style="overflow:visible;"/>
			</clipPath>
			<g transform="matrix(1 0 0 1 3.051758e-05 0)" class="st1">
				
					<image style="overflow:visible;enable-background:new    ;" width="1556" height="1036" xlink:href="3254A028669589E2.jpg"  transform="matrix(0.1641 0 0 0.1641 397.4896 88.2757)">
				</image>
			</g>
		</g>
	</g>
	<circle class="st2" cx="532.8" cy="173.3" r="84"/>
	<g>
		<path class="st3" d="M490.9,178.8c-1.1,0.7-2.5,1.1-4.2,1.1c-1.5,0-2.8-0.3-3.9-0.9c-1.1-0.6-1.9-1.4-2.5-2.6s-0.9-2.5-0.9-4
			s0.3-2.9,0.9-4s1.4-2,2.5-2.6s2.4-0.9,3.9-0.9c1.6,0,3,0.3,4.2,1s1.9,1.7,2.2,3.2l-3.9,1.6c-0.2-0.9-0.4-1.5-0.8-1.8
			s-0.9-0.5-1.6-0.5c-0.9,0-1.6,0.3-2.1,1s-0.7,1.7-0.7,3c0,2.7,0.9,4,2.7,4c0.7,0,1.3-0.2,1.7-0.5c0.4-0.3,0.6-0.9,0.8-1.7l4,1.1
			C492.8,177,492.1,178.1,490.9,178.8z"/>
		<path class="st3" d="M507,167c1.3,1.3,1.9,3.1,1.9,5.5s-0.6,4.2-1.9,5.5s-3.1,2-5.3,2c-1.5,0-2.8-0.3-3.9-0.9
			c-1.1-0.6-1.9-1.4-2.5-2.6s-0.9-2.5-0.9-4s0.3-2.9,0.9-4s1.4-2,2.5-2.6s2.4-0.9,3.9-0.9C503.9,165,505.7,165.6,507,167z
			 M499.6,169.4c-0.4,0.7-0.7,1.7-0.7,3c0,1.4,0.2,2.4,0.7,3c0.4,0.7,1.1,1,2,1s1.6-0.3,2-1s0.6-1.7,0.6-3.1c0-1.4-0.2-2.4-0.6-3.1
			c-0.4-0.7-1.1-1-2-1C500.7,168.4,500.1,168.8,499.6,169.4z"/>
		<path class="st3" d="M524.3,173.6c0,4.2-2.3,6.3-6.8,6.3s-6.8-2.1-6.8-6.3v-8.4h4.5v8.7c0,1.8,0.7,2.6,2.2,2.6s2.3-0.9,2.3-2.6
			v-8.7h4.5L524.3,173.6L524.3,173.6z"/>
		<path class="st3" d="M540.3,179.7h-4.9l-4-7.2l-0.9-2l0,0l0.1,2.9v6.3h-3.9v-14.5h4.9l4,7.2l0.9,2l0,0l-0.1-2.9v-6.3h3.9V179.7z"
			/>
		<path class="st3" d="M555.9,168.6h-4.6v11.2h-4.5v-11.2h-4.7v-3.4h13.8V168.6z"/>
		<path class="st3" d="M564,174.7h-1.8v5h-4.4v-14.5h7.4c1.8,0,3.3,0.4,4.2,1.2c1,0.8,1.5,2,1.5,3.5c0,2.1-0.9,3.5-2.7,4.2l3.5,5.5
			h-4.9L564,174.7z M562.2,171.6h2.2c0.7,0,1.3-0.1,1.6-0.4s0.5-0.6,0.5-1.2c0-0.6-0.2-1-0.5-1.2s-0.8-0.4-1.6-0.4h-2.2V171.6z"/>
		<path class="st3" d="M580.6,174.6v5.1h-4.5v-5.1l-5.1-9.4h4.6l1.8,3.6l1.1,2.5l1.1-2.5l1.8-3.6h4.5L580.6,174.6z"/>
	</g>
</g>
<g id="jazz">
	<g id="jazzgiallo">
		<g>
			<defs>
				<circle id="SVGID_5_" cx="743.7" cy="173.3" r="84"/>
			</defs>
			<clipPath id="SVGID_6_">
				<use xlink:href="#SVGID_5_"  style="overflow:visible;"/>
			</clipPath>
			<g class="st4">
				
					<image style="overflow:visible;enable-background:new    ;" width="2048" height="1365" xlink:href="../img/bottoni/Jazz_Ella-giallo.jpg"  transform="matrix(0.1244 0 0 0.1244 592.6342 89.2439)">
				</image>
			</g>
		</g>
	</g>
	<g id="jazznero">
		<g>
			<defs>
				<circle id="SVGID_7_" cx="743.7" cy="173.3" r="84"/>
			</defs>
			<clipPath id="SVGID_8_">
				<use xlink:href="#SVGID_7_"  style="overflow:visible;"/>
			</clipPath>
			<g class="st5">
				
					<image style="overflow:visible;enable-background:new    ;" width="2048" height="1365" xlink:href="../img/bottoni/Jazz_Ella-nero.jpg"  transform="matrix(0.125 0 0 0.125 591.6626 89.2439)">
				</image>
			</g>
		</g>
	</g>
	<circle class="st2" cx="743.7" cy="173.3" r="84"/>
	<g>
		<path class="st3" d="M728,173.9c0,1.9-0.6,3.4-1.7,4.4c-1.1,1-2.8,1.6-4.8,1.6s-3.4-0.4-4.4-1.3s-1.5-2.1-1.5-3.6
			c0-0.5,0-0.9,0.1-1.4l4.5-0.7c-0.1,0.6-0.1,1.1-0.1,1.5c0,0.8,0.1,1.3,0.4,1.7s0.7,0.5,1.3,0.5s1.1-0.2,1.4-0.7
			c0.3-0.5,0.4-1.2,0.4-2.3v-8.3h4.5v8.6H728z"/>
		<path class="st3" d="M738.2,176.7h-4.4l-0.8,3h-4.5l4.9-14.5h5.4l4.9,14.5h-4.6L738.2,176.7z M737.5,173.8l-0.8-2.9l-0.6-2.4l0,0
			l-0.6,2.4l-0.8,2.9H737.5z"/>
		<path class="st3" d="M757.1,176.4v3.3h-12.8v-3.1l7.7-8.1h-7.6v-3.3h12.5v3.1l-7.7,8.1H757.1z"/>
		<path class="st3" d="M771.1,176.4v3.3h-12.8v-3.1l7.7-8.1h-7.6v-3.3h12.5v3.1l-7.7,8.1H771.1z"/>
	</g>
</g>
<g id="rock">
	<g id="rockgiallo">
		<g>
			<defs>
				<circle id="SVGID_9_" cx="955.1" cy="173.3" r="84"/>
			</defs>
			<clipPath id="SVGID_10_">
				<use xlink:href="#SVGID_9_"  style="overflow:visible;"/>
			</clipPath>
			<g class="st6">
				
					<image style="overflow:visible;enable-background:new    ;" width="2689" height="1556" xlink:href="3254A028669589E6.jpg"  transform="matrix(0.1084 0 0 0.1084 817.1655 87.0454)">
				</image>
			</g>
		</g>
	</g>
	<g id="rocknero">
		<g>
			<defs>
				<circle id="SVGID_11_" cx="955.1" cy="173.3" r="84"/>
			</defs>
			<clipPath id="SVGID_12_">
				<use xlink:href="#SVGID_11_"  style="overflow:visible;"/>
			</clipPath>
			<g class="st7">
				
					<image style="overflow:visible;enable-background:new    ;" width="2690" height="1561" xlink:href="3254A028669589E3.jpg"  transform="matrix(0.1087 0 0 0.1087 816.3234 86.481)">
				</image>
			</g>
		</g>
	</g>
	<circle class="st2" cx="955.1" cy="173.3" r="84"/>
	<g>
		<path class="st3" d="M932.7,174.7h-1.8v5h-4.4v-14.5h7.4c1.8,0,3.3,0.4,4.2,1.2c1,0.8,1.5,2,1.5,3.5c0,2.1-0.9,3.5-2.7,4.2
			l3.5,5.5h-4.9L932.7,174.7z M930.9,171.6h2.2c0.7,0,1.3-0.1,1.6-0.4c0.3-0.2,0.5-0.6,0.5-1.2c0-0.6-0.2-1-0.5-1.2
			s-0.8-0.4-1.6-0.4h-2.2V171.6z"/>
		<path class="st3" d="M953.7,167c1.3,1.3,1.9,3.1,1.9,5.5s-0.6,4.2-1.9,5.5c-1.3,1.3-3.1,2-5.3,2c-1.5,0-2.8-0.3-3.9-0.9
			c-1.1-0.6-1.9-1.4-2.5-2.6c-0.6-1.1-0.9-2.5-0.9-4s0.3-2.9,0.9-4c0.6-1.1,1.4-2,2.5-2.6s2.4-0.9,3.9-0.9
			C950.7,165,952.4,165.6,953.7,167z M946.4,169.4c-0.4,0.7-0.7,1.7-0.7,3c0,1.4,0.2,2.4,0.7,3c0.4,0.7,1.1,1,2,1s1.6-0.3,2-1
			s0.6-1.7,0.6-3.1c0-1.4-0.2-2.4-0.6-3.1c-0.4-0.7-1.1-1-2-1C947.5,168.4,946.8,168.8,946.4,169.4z"/>
		<path class="st3" d="M968.8,178.8c-1.1,0.7-2.5,1.1-4.2,1.1c-1.5,0-2.8-0.3-3.9-0.9c-1.1-0.6-1.9-1.4-2.5-2.6
			c-0.6-1.1-0.9-2.5-0.9-4s0.3-2.9,0.9-4c0.6-1.1,1.4-2,2.5-2.6s2.4-0.9,3.9-0.9c1.6,0,3,0.3,4.2,1s1.9,1.7,2.2,3.2l-3.9,1.6
			c-0.2-0.9-0.4-1.5-0.8-1.8c-0.4-0.3-0.9-0.5-1.6-0.5c-0.9,0-1.6,0.3-2.1,1s-0.7,1.7-0.7,3c0,2.7,0.9,4,2.7,4
			c0.7,0,1.3-0.2,1.7-0.5s0.6-0.9,0.8-1.7l4,1.1C970.7,177,969.9,178.1,968.8,178.8z"/>
		<path class="st3" d="M978.7,173.9l-1.5,1.9v3.9h-4.5v-14.5h4.5v5.9l4.4-5.9h4.9l-4.6,5.8l5,8.7h-5.1L978.7,173.9z"/>
		<path class="st3" d="M937.7,206.1h-4v-5.8l0.1-4.7l0,0l-3.2,10.5H927l-3.1-10.5h-0.1l0.1,4.7v5.8h-4v-14.5h6.3l2,6.9l0.7,2.9l0,0
			l0.7-2.9l2-6.9h6L937.7,206.1L937.7,206.1z"/>
		<path class="st3" d="M952.3,202.8v3.4h-12v-14.5H952v3.4h-7.2v2.4h5.8v3.1h-5.8v2.3L952.3,202.8L952.3,202.8z"/>
		<path class="st3" d="M967.1,195h-4.6v11.2H958V195h-4.7v-3.4h13.8V195z"/>
		<path class="st3" d="M975.3,203.1h-4.4l-0.8,3h-4.5l4.9-14.5h5.4l4.9,14.5h-4.6L975.3,203.1z M974.5,200.2l-0.8-2.9l-0.6-2.4l0,0
			l-0.6,2.4l-0.8,2.9H974.5z"/>
		<path class="st3" d="M993.4,202.8v3.4H982v-14.5h4.5v11.2L993.4,202.8L993.4,202.8z"/>
	</g>
</g>
<g id="Hiphop">
	<g id="hiphopgiallo">
		<g>
			<defs>
				<circle id="SVGID_13_" cx="324.1" cy="375.3" r="84"/>
			</defs>
			<clipPath id="SVGID_14_">
				<use xlink:href="#SVGID_13_"  style="overflow:visible;"/>
			</clipPath>
			<g transform="matrix(1 0 0 1 0 0)" class="st8">
				
					<image style="overflow:visible;enable-background:new    ;" width="1920" height="1200" xlink:href="../img/bottoni/HipHop_Wiz-giallo.jpg"  transform="matrix(0.1397 0 0 0.1397 180.7832 290.5864)">
				</image>
			</g>
		</g>
	</g>
	<g id="hiphopnero">
		<g>
			<defs>
				<circle id="SVGID_15_" cx="324.1" cy="375.3" r="84"/>
			</defs>
			<clipPath id="SVGID_16_">
				<use xlink:href="#SVGID_15_"  style="overflow:visible;"/>
			</clipPath>
			<g class="st9">
				
					<image style="overflow:visible;enable-background:new    ;" width="1920" height="1200" xlink:href="../img/bottoni/HipHop_Wiz-nero.jpg"  transform="matrix(0.1393 0 0 0.1393 181.2779 291.2367)">
				</image>
			</g>
		</g>
	</g>
	<circle class="st2" cx="324.1" cy="375.3" r="84"/>
	<g>
		<path class="st3" d="M290.4,367.9v14.5h-4.5v-5.6h-4.7v5.6h-4.5v-14.5h4.5v5.5h4.7v-5.5H290.4z"/>
		<path class="st3" d="M297.6,382.4h-4.5v-14.5h4.5V382.4z"/>
		<path class="st3" d="M311.9,369.1c1,0.8,1.5,2.1,1.5,3.7c0,1.5-0.5,2.7-1.5,3.5s-2.5,1.2-4.4,1.2h-2.7v4.8h-4.5v-14.5h7.2
			C309.4,367.9,310.9,368.3,311.9,369.1z M308.3,374c0.3-0.3,0.5-0.7,0.5-1.2s-0.2-1-0.5-1.2c-0.3-0.3-0.9-0.4-1.6-0.4h-2v3.3h2
			C307.5,374.4,308,374.3,308.3,374z"/>
		<path class="st3" d="M323.7,378.2h-8.3v-3.5h8.3V378.2z"/>
		<path class="st3" d="M340.4,367.9v14.5h-4.5v-5.6h-4.7v5.6h-4.5v-14.5h4.5v5.5h4.7v-5.5H340.4z"/>
		<path class="st3" d="M355.1,369.6c1.3,1.3,1.9,3.2,1.9,5.5s-0.6,4.2-1.9,5.5s-3.1,2-5.3,2c-1.5,0-2.8-0.3-3.9-0.9
			s-1.9-1.4-2.5-2.6c-0.6-1.1-0.9-2.5-0.9-4s0.3-2.9,0.9-4s1.4-2,2.5-2.6s2.4-0.9,3.9-0.9C352.1,367.7,353.9,368.3,355.1,369.6z
			 M347.8,372.1c-0.4,0.7-0.7,1.7-0.7,3c0,1.4,0.2,2.4,0.7,3c0.4,0.7,1.1,1,2,1s1.6-0.3,2-1s0.6-1.7,0.6-3.1s-0.2-2.4-0.6-3.1
			s-1.1-1-2-1C348.9,371.1,348.3,371.4,347.8,372.1z"/>
		<path class="st3" d="M370.8,369.1c1,0.8,1.5,2.1,1.5,3.7c0,1.5-0.5,2.7-1.5,3.5s-2.5,1.2-4.4,1.2h-2.7v4.8h-4.5v-14.5h7.2
			C368.3,367.9,369.8,368.3,370.8,369.1z M367.3,374c0.3-0.3,0.5-0.7,0.5-1.2s-0.2-1-0.5-1.2c-0.3-0.3-0.9-0.4-1.6-0.4h-2v3.3h2
			C366.4,374.4,366.9,374.3,367.3,374z"/>
		<path class="st3" d="M309,403.8h-1.8v5h-4.4v-14.5h7.4c1.8,0,3.3,0.4,4.2,1.2c1,0.8,1.5,2,1.5,3.5c0,2.1-0.9,3.5-2.7,4.2l3.5,5.5
			h-4.9L309,403.8z M307.2,400.7h2.2c0.7,0,1.3-0.1,1.6-0.4s0.5-0.6,0.5-1.2s-0.2-1-0.5-1.2s-0.8-0.4-1.6-0.4h-2.2V400.7z"/>
		<path class="st3" d="M326.5,405.8H322l-0.8,3h-4.5l4.9-14.5h5.4l4.9,14.5h-4.6L326.5,405.8z M325.7,402.9l-0.8-2.9l-0.6-2.4l0,0
			l-0.6,2.4l-0.8,2.9H325.7z"/>
		<path class="st3" d="M344.8,395.5c1,0.8,1.5,2.1,1.5,3.7c0,1.5-0.5,2.7-1.5,3.5s-2.5,1.2-4.4,1.2h-2.7v4.8h-4.5v-14.5h7.2
			C342.3,394.3,343.8,394.7,344.8,395.5z M341.2,400.4c0.3-0.3,0.5-0.7,0.5-1.2c0-0.6-0.2-1-0.5-1.2s-0.9-0.4-1.6-0.4h-2v3.3h2
			C340.4,400.8,340.9,400.7,341.2,400.4z"/>
	</g>
</g>
<g id="EDM">
	<g id="edmgiallo">
		<g>
			<defs>
				<circle id="SVGID_17_" cx="535.3" cy="375.3" r="84"/>
			</defs>
			<clipPath id="SVGID_18_">
				<use xlink:href="#SVGID_17_"  style="overflow:visible;"/>
			</clipPath>
			<g class="st10">
				
					<image style="overflow:visible;enable-background:new    ;" width="1927" height="1083" xlink:href="3254A028669589EE.jpg"  transform="matrix(0.1547 0 0 0.1547 383.177 291.2918)">
				</image>
			</g>
		</g>
	</g>
	<g id="edmnero">
		<g>
			<defs>
				<circle id="SVGID_19_" cx="535.3" cy="375.3" r="84"/>
			</defs>
			<clipPath id="SVGID_20_">
				<use xlink:href="#SVGID_19_"  style="overflow:visible;"/>
			</clipPath>
			<g class="st11">
				
					<image style="overflow:visible;enable-background:new    ;" width="1923" height="1087" xlink:href="463B25D6D39CED61.jpg"  transform="matrix(0.1551 0 0 0.1551 383.3946 290.3307)">
				</image>
			</g>
		</g>
	</g>
	<circle class="st2" cx="535.3" cy="375.3" r="84"/>
	<g>
		<path class="st3" d="M523.6,379v3.4h-12v-14.5h11.7v3.4h-7.2v2.4h5.8v3.1h-5.8v2.3L523.6,379L523.6,379z"/>
		<path class="st3" d="M537.3,369.8c1.2,1.3,1.8,3,1.8,5.4s-0.6,4.1-1.8,5.4s-2.9,1.9-5.2,1.9h-6.7V368h6.7
			C534.4,367.9,536.1,368.5,537.3,369.8z M533.8,378.2c0.4-0.6,0.7-1.6,0.7-3s-0.2-2.4-0.7-3c-0.4-0.6-1.2-1-2.2-1H530v8h1.6
			C532.6,379.1,533.3,378.8,533.8,378.2z"/>
		<path class="st3" d="M559,382.4h-4v-5.8l0.1-4.7l0,0l-3.2,10.5h-3.6l-3.1-10.5h-0.1l0.1,4.7v5.8h-4v-14.5h6.3l2,6.9l0.7,2.9l0,0
			l0.7-2.9l2-6.9h6.1V382.4z"/>
		<path class="st3" d="M525.1,395.5c1,0.8,1.5,2.1,1.5,3.7c0,1.5-0.5,2.7-1.5,3.5s-2.5,1.2-4.4,1.2H518v4.8h-4.5v-14.5h7.2
			C522.6,394.3,524.1,394.7,525.1,395.5z M521.6,400.4c0.3-0.3,0.5-0.7,0.5-1.2s-0.2-1-0.5-1.2c-0.3-0.3-0.9-0.4-1.6-0.4h-2v3.3h2
			C520.7,400.8,521.2,400.7,521.6,400.4z"/>
		<path class="st3" d="M540.7,396c1.3,1.3,1.9,3.2,1.9,5.5s-0.6,4.2-1.9,5.5s-3.1,2-5.3,2c-1.5,0-2.8-0.3-3.9-0.9
			c-1.1-0.6-1.9-1.4-2.5-2.6c-0.6-1.1-0.9-2.5-0.9-4s0.3-2.9,0.9-4c0.6-1.1,1.4-2,2.5-2.6s2.4-0.9,3.9-0.9
			C537.6,394.1,539.4,394.7,540.7,396z M533.3,398.5c-0.4,0.7-0.7,1.7-0.7,3c0,1.4,0.2,2.4,0.7,3c0.4,0.7,1.1,1,2,1s1.6-0.3,2-1
			s0.6-1.7,0.6-3.1s-0.2-2.4-0.6-3.1s-1.1-1-2-1C534.5,397.5,533.8,397.8,533.3,398.5z"/>
		<path class="st3" d="M556.3,395.5c1,0.8,1.5,2.1,1.5,3.7c0,1.5-0.5,2.7-1.5,3.5s-2.5,1.2-4.4,1.2h-2.7v4.8h-4.5v-14.5h7.2
			C553.9,394.3,555.3,394.7,556.3,395.5z M552.8,400.4c0.3-0.3,0.5-0.7,0.5-1.2s-0.2-1-0.5-1.2c-0.3-0.3-0.9-0.4-1.6-0.4h-2v3.3h2
			C551.9,400.8,552.5,400.7,552.8,400.4z"/>
	</g>
</g>
<g id="Blues">
	<g id="bluesgiallo">
		<g>
			<defs>
				<circle id="SVGID_21_" cx="746.2" cy="375.3" r="84"/>
			</defs>
			<clipPath id="SVGID_22_">
				<use xlink:href="#SVGID_21_"  style="overflow:visible;"/>
			</clipPath>
			<g transform="matrix(1 0 0 1 0 0)" class="st12">
				
					<image style="overflow:visible;enable-background:new    ;" width="3738" height="2912" xlink:href="../img/bottoni/Blues_Armstrong-giallo.jpg"  transform="matrix(5.660309e-02 0 0 5.660309e-02 617.6306 293.1928)">
				</image>
			</g>
		</g>
	</g>
	<g id="bluesnero">
		<g>
			<defs>
				<circle id="SVGID_23_" cx="746.2" cy="375.3" r="84"/>
			</defs>
			<clipPath id="SVGID_24_">
				<use xlink:href="#SVGID_23_"  style="overflow:visible;"/>
			</clipPath>
			<g transform="matrix(1 0 0 1 0 0)" class="st13">
				
					<image style="overflow:visible;enable-background:new    ;" width="3738" height="2912" xlink:href="../img/bottoni/Blues_Armstrong-nero.jpg"  transform="matrix(5.689512e-02 0 0 5.689512e-02 616.8556 292.6259)">
				</image>
			</g>
		</g>
	</g>
	<circle class="st2" cx="746.2" cy="375.3" r="84"/>
	<g>
		<path class="st3" d="M709,367.9h7.7c3.6,0,5.3,1.3,5.3,3.9c0,0.9-0.3,1.6-0.8,2.2s-1.3,1-2.3,1.1l0,0c1.2,0.1,2,0.5,2.6,1.1
			s0.9,1.4,0.9,2.3c0,1.3-0.4,2.2-1.3,2.9c-0.9,0.7-2.2,1-3.9,1H709V367.9z M715.7,373.6c1.1,0,1.7-0.4,1.7-1.3s-0.6-1.3-1.7-1.3
			h-2.5v2.6L715.7,373.6L715.7,373.6z M716.1,379.4c1.1,0,1.7-0.4,1.7-1.3s-0.6-1.3-1.7-1.3h-2.8v2.6L716.1,379.4L716.1,379.4z"/>
		<path class="st3" d="M735.6,379v3.4h-11.4v-14.5h4.5V379H735.6z"/>
		<path class="st3" d="M750.7,376.3c0,4.2-2.3,6.3-6.8,6.3s-6.8-2.1-6.8-6.3v-8.4h4.5v8.7c0,1.8,0.7,2.6,2.2,2.6s2.3-0.9,2.3-2.6
			v-8.7h4.5L750.7,376.3L750.7,376.3z"/>
		<path class="st3" d="M765.1,379v3.4h-12v-14.5h11.7v3.4h-7.2v2.4h5.8v3.1h-5.8v2.3L765.1,379L765.1,379z"/>
		<path class="st3" d="M776.5,368.2c1,0.4,2,1,2.9,1.9l-2.2,2.8c-0.6-0.7-1.2-1.2-1.9-1.5s-1.4-0.5-2.3-0.5c-0.6,0-1.1,0.1-1.5,0.3
			c-0.4,0.2-0.5,0.5-0.5,0.8s0.2,0.5,0.5,0.6c0.4,0.1,1,0.3,1.8,0.5c1.4,0.2,2.5,0.6,3.4,1c0.8,0.4,1.5,0.9,1.8,1.5
			c0.4,0.6,0.6,1.4,0.6,2.3c0,1-0.3,1.8-0.8,2.5s-1.3,1.2-2.3,1.6s-2,0.5-3.2,0.5c-1.7,0-3-0.2-4-0.5c-1-0.4-2-0.9-2.9-1.7l2.1-3.1
			c0.6,0.7,1.2,1.2,2,1.5c0.7,0.3,1.6,0.5,2.6,0.5c1.3,0,2-0.3,2-1c0-0.3-0.2-0.5-0.6-0.7s-1-0.3-1.9-0.5c-1.2-0.2-2.2-0.5-3-0.8
			s-1.5-0.8-2-1.4s-0.8-1.4-0.8-2.4s0.3-1.8,0.8-2.5s1.3-1.3,2.2-1.7c1-0.4,2.2-0.6,3.5-0.6C774.3,367.7,775.5,367.8,776.5,368.2z"
			/>
	</g>
</g>
<g id="r_x26_b">
	<g id="r_x26_bgiallo">
		<g>
			<defs>
				<circle id="SVGID_25_" cx="957.6" cy="375.3" r="84"/>
			</defs>
			<clipPath id="SVGID_26_">
				<use xlink:href="#SVGID_25_"  style="overflow:visible;"/>
			</clipPath>
			<g class="st14">
				
					<image style="overflow:visible;enable-background:new    ;" width="650" height="430" xlink:href="../img/bottoni/r&amp;b_rihanna-nero.jpg"  transform="matrix(0.3909 0 0 0.3909 828.8614 291.2367)">
				</image>
			</g>
		</g>
	</g>
	<g id="r_x26_bnero">
		<g>
			<defs>
				<circle id="SVGID_27_" cx="957.6" cy="375.3" r="84"/>
			</defs>
			<clipPath id="SVGID_28_">
				<use xlink:href="#SVGID_27_"  style="overflow:visible;"/>
			</clipPath>
			<g transform="matrix(1 0 0 1 -6.103516e-05 0)" class="st15">
				
					<image style="overflow:visible;enable-background:new    ;" width="650" height="430" xlink:href="../img/bottoni/r&amp;b_rihanna-nero.jpg"  transform="matrix(0.3908 0 0 0.3908 828.116 291.2758)">
				</image>
			</g>
		</g>
	</g>
	<circle class="st2" cx="957.6" cy="375.3" r="84"/>
	<g>
		<path class="st3" d="M944.1,377.4h-1.8v5h-4.4v-14.5h7.4c1.8,0,3.3,0.4,4.2,1.2c1,0.8,1.5,2,1.5,3.5c0,2.1-0.9,3.5-2.7,4.2
			l3.5,5.5h-4.9L944.1,377.4z M942.3,374.4h2.2c0.7,0,1.3-0.1,1.6-0.4c0.3-0.2,0.5-0.6,0.5-1.2s-0.2-1-0.5-1.2s-0.8-0.4-1.6-0.4
			h-2.2V374.4z"/>
		<path class="st3" d="M965.8,382.7c-0.9,0-1.7-0.1-2.2-0.2s-1.2-0.5-1.9-1c-1,0.8-2.4,1.3-4.1,1.3c-1.6,0-2.9-0.3-3.8-1
			c-1-0.7-1.4-1.7-1.4-3c0-0.7,0.2-1.4,0.6-2.1c0.4-0.7,1.1-1.2,2.1-1.6c-0.5-0.6-0.9-1.2-1.1-1.7c-0.2-0.5-0.3-1-0.3-1.6
			c0-0.7,0.2-1.3,0.5-1.9c0.4-0.6,0.9-1.1,1.6-1.4c0.7-0.4,1.6-0.5,2.6-0.5c1.1,0,1.9,0.2,2.6,0.5c0.7,0.3,1.2,0.8,1.6,1.3
			s0.5,1.1,0.5,1.8c0,0.9-0.3,1.7-0.8,2.3c-0.5,0.7-1.3,1.2-2.4,1.6l0.8,0.9l1.3,1.4c0.3-0.7,0.4-1.5,0.4-2.4h2.9c0,1.6-0.5,3-1.4,4
			c0.5,0.3,1,0.5,1.5,0.5c0.2,0,0.4,0,0.7-0.1L965.8,382.7z M959.6,379.6l-0.9-0.9l-2-2c-0.3,0.2-0.4,0.5-0.5,0.7s-0.2,0.5-0.2,0.8
			c0,0.5,0.2,0.8,0.5,1.1c0.4,0.3,0.9,0.4,1.5,0.4C958.5,379.9,959.1,379.8,959.6,379.6z M957.7,370.8c-0.2,0.2-0.3,0.5-0.3,0.9
			c0,0.3,0.1,0.5,0.2,0.8c0.1,0.3,0.4,0.6,0.8,1.1c0.5-0.4,0.8-0.7,1-1s0.2-0.7,0.2-1.1c0-0.3-0.1-0.6-0.3-0.8
			c-0.2-0.2-0.5-0.3-0.8-0.3C958.1,370.5,957.9,370.6,957.7,370.8z"/>
		<path class="st3" d="M967.6,367.9h7.7c3.6,0,5.3,1.3,5.3,3.9c0,0.9-0.3,1.6-0.8,2.2s-1.3,1-2.3,1.1l0,0c1.2,0.1,2,0.5,2.6,1.1
			s0.9,1.4,0.9,2.3c0,1.3-0.4,2.2-1.3,2.9c-0.9,0.7-2.2,1-3.9,1h-8.2V367.9z M974.4,373.7c1.1,0,1.7-0.4,1.7-1.3s-0.6-1.3-1.7-1.3
			h-2.5v2.6L974.4,373.7L974.4,373.7z M974.8,379.4c1.1,0,1.7-0.4,1.7-1.3s-0.6-1.3-1.7-1.3H972v2.6L974.8,379.4L974.8,379.4z"/>
	</g>
</g>
<g id="REGGAE">
	<g id="reggaegiallo_1_">
		<g>
			<defs>
				<circle id="SVGID_29_" cx="321.7" cy="176.1" r="84"/>
			</defs>
			<clipPath id="SVGID_30_">
				<use xlink:href="#SVGID_29_"  style="overflow:visible;"/>
			</clipPath>
			<g class="st16">
				
					<image style="overflow:visible;enable-background:new    ;" width="500" height="329" xlink:href="../img/bottoni/Reggae_Bob-giallo.jpg"  transform="matrix(0.5011 0 0 0.5011 203.517 92.8589)">
				</image>
			</g>
		</g>
	</g>
	<g id="reggaenero_1_">
		<g>
			<defs>
				<circle id="SVGID_31_" cx="321.7" cy="176.1" r="84"/>
			</defs>
			<clipPath id="SVGID_32_">
				<use xlink:href="#SVGID_31_"  style="overflow:visible;"/>
			</clipPath>
			<g class="st17">
				
					<image style="overflow:visible;enable-background:new    ;" width="500" height="329" xlink:href="../img/bottoni/Reggae_Bob-nero.jpg"  transform="matrix(0.5108 0 0 0.5108 200.8096 92.565)">
				</image>
			</g>
		</g>
	</g>
	<circle class="st2" cx="322.6" cy="176.1" r="84"/>
	<g>
		<path class="st3" d="M283.9,175.2h-1.8v5h-4.4v-14.5h7.4c1.8,0,3.3,0.4,4.2,1.2c1,0.8,1.5,2,1.5,3.5c0,2.1-0.9,3.5-2.7,4.2
			l3.5,5.5h-4.9L283.9,175.2z M282.1,172.2h2.2c0.7,0,1.3-0.1,1.6-0.4s0.5-0.6,0.5-1.2c0-0.6-0.2-1-0.5-1.2s-0.8-0.4-1.6-0.4h-2.2
			V172.2z"/>
		<path class="st3" d="M305.1,176.9v3.4h-12v-14.5h11.7v3.4h-7.2v2.4h5.8v3.1h-5.8v2.3L305.1,176.9L305.1,176.9z"/>
		<path class="st3" d="M313.5,172.2h6.8v8h-3l-0.2-1.7c-0.8,1.3-2.1,1.9-4,1.9c-1.3,0-2.4-0.3-3.5-0.9c-1-0.6-1.8-1.4-2.4-2.5
			s-0.9-2.5-0.9-4c0-1.6,0.3-2.9,0.9-4s1.4-2,2.6-2.6c1.1-0.6,2.4-0.9,3.9-0.9c1.7,0,3.1,0.3,4.2,0.9s1.9,1.6,2.4,2.9l-4.2,1.6
			c-0.3-1.3-1-2-2.3-2c-2,0-2.9,1.3-2.9,4c0,1.4,0.2,2.5,0.7,3.1c0.5,0.7,1.3,1,2.3,1c0.8,0,1.4-0.2,1.8-0.5s0.7-0.8,0.7-1.4V175h-3
			v-2.8H313.5z"/>
		<path class="st3" d="M329.3,172.2h6.8v8h-3l-0.2-1.7c-0.8,1.3-2.1,1.9-4,1.9c-1.3,0-2.4-0.3-3.5-0.9c-1-0.6-1.8-1.4-2.4-2.5
			s-0.9-2.5-0.9-4c0-1.6,0.3-2.9,0.9-4s1.4-2,2.6-2.6c1.1-0.6,2.4-0.9,3.9-0.9c1.7,0,3.1,0.3,4.2,0.9s1.9,1.6,2.4,2.9l-4.2,1.6
			c-0.3-1.3-1-2-2.3-2c-2,0-2.9,1.3-2.9,4c0,1.4,0.2,2.5,0.7,3.1c0.5,0.7,1.3,1,2.3,1c0.8,0,1.4-0.2,1.8-0.5s0.7-0.8,0.7-1.4V175h-3
			v-2.8H329.3z"/>
		<path class="st3" d="M346.9,177.2h-4.4l-0.8,3h-4.5l4.9-14.5h5.4l4.9,14.5h-4.6L346.9,177.2z M346.2,174.3l-0.8-2.9l-0.6-2.4l0,0
			l-0.6,2.4l-0.8,2.9H346.2z"/>
		<path class="st3" d="M365.6,176.9v3.4h-12v-14.5h11.7v3.4h-7.2v2.4h5.8v3.1h-5.8v2.3L365.6,176.9L365.6,176.9z"/>
	</g>
</g>
</svg>
