<?xml version="1.0" encoding="utf-8"?>
<!-- Generator: Adobe Illustrator 19.2.1, SVG Export Plug-In . SVG Version: 6.00 Build 0)  -->
<svg version="1.1" xmlns="http://www.w3.org/2000/svg" xmlns:xlink="http://www.w3.org/1999/xlink" x="0px" y="0px"
	 viewBox="0 0 1702.9 813.7" style="enable-background:new 0 0 1702.9 813.7;" xml:space="preserve">
<style type="text/css">
	.st0{fill:none;stroke:#FFDF87;stroke-width:0.5;stroke-miterlimit:10;}
	.st1{fill:#FDCA00;}
	.st2{font-family:'Lekton-Bold';}
	.st3{font-size:70px;}
	.st4{font-family:'Lekton-Regular';}
	.st5{font-size:30px;}
	.st6{font-size:15px;}
</style>
<g id="Objects">
	<path class="st0" d="M1621.9,465.8c-0.9,0.6-6.5,0.3-5.3,1.7c1,1.1,5.8,0.5,8,1.8c2.2,1.3,5.2,0.3,5.2-0.8
		C1629.8,467.4,1622.8,465.1,1621.9,465.8z"/>
	<text transform="matrix(1 0 0 1 5.798340e-04 534.4651)" class="st1 st2 st3">19.4</text>
	<text transform="matrix(1 0 0 1 1.525879e-04 462.7942)" class="st4 st5">Ecstasy</text>
	<text transform="matrix(1 0 0 1 8.239746e-04 587.1309)" class="st4 st5">Opioids</text>
	<text transform="matrix(1 0 0 1 8.239746e-04 658.8018)" class="st1 st2 st3">33</text>
	
		<rect x="320.1" y="507.6" transform="matrix(3.924796e-10 1 -1 3.924796e-10 979.2407 294.7467)" class="st1" width="44.3" height="258.9"/>
	<text transform="matrix(1 0 0 1 1.525879e-04 410.8533)" class="st1 st2 st3">18.3</text>
	<text transform="matrix(1 0 0 1 9.155273e-05 339.1824)" class="st4 st5">Cocaine</text>
	
		<rect x="262.4" y="316.8" transform="matrix(3.924796e-10 1 -1 3.924796e-10 673.1428 103.9609)" class="st1" width="44.3" height="143.6"/>
	<text transform="matrix(1 0 0 1 1.525879e-04 286.6228)" class="st1 st2 st3">182.5</text>
	<text transform="matrix(1 0 0 1 5.187988e-04 214.9519)" class="st4 st5">Cannabis</text>
	
		<rect x="904.5" y="-449.5" transform="matrix(3.924183e-10 1 -1 3.924183e-10 1190.983 -662.3211)" class="st1" width="44.3" height="1427.7"/>
	
		<rect x="266.7" y="436.7" transform="matrix(3.924796e-10 1 -1 3.924796e-10 801.6781 223.8675)" class="st1" width="44.3" height="152.2"/>
	<text transform="matrix(1 0 0 1 6.103516e-05 162.2731)" class="st1 st2 st3">35.7</text>
	<text transform="matrix(1 0 0 1 1.831055e-04 90.6022)" class="st4 st5">Amphetamines </text>
	
		<rect x="330.7" y="0.1" transform="matrix(3.924095e-10 1 -1 3.924095e-10 492.947 -212.7268)" class="st1" width="44.3" height="280"/>
	<text transform="matrix(1 0 0 1 1.068115e-04 792.3846)"><tspan x="0" y="0" class="st4 st6">number of users</tspan><tspan x="0" y="18" class="st4 st6">(in millions)</tspan></text>
</g>
<g id="timeline">
</g>
<g id="legend">
</g>
<g id="unknown">
</g>
<g id="_x31_994">
</g>
<g id="_x32_000">
</g>
<g id="_x32_005">
</g>
<g id="_x32_010">
</g>
<g id="_x32_015">
</g>
<g id="_x32_017">
</g>
</svg>
